<svg width="794" height="528" viewBox="0 0 794 528" fill="none" xmlns="http://www.w3.org/2000/svg">
<path d="M354.147 484.065C344.305 484.065 334.462 484.065 324.62 484.065C324.644 484.02 324.674 483.977 324.692 483.93C331.862 464.901 335.885 444.694 340.956 424.949C341.405 423.206 337.594 423.745 337.184 425.342C332.176 444.841 328.233 464.833 321.153 483.624C321.091 483.787 321.069 483.93 321.061 484.064C309.37 484.064 297.679 484.064 285.989 484.064C286.273 483.867 286.495 483.61 286.601 483.294C294.643 459.286 301.735 434.878 310.972 411.355C318.407 392.417 332.667 383.335 349.657 380.673C356.013 380.263 363.31 379.939 366.007 379.824C371.183 388.033 376.469 400.077 386.067 401.971C397.391 404.206 397.869 389.075 397.821 380.617C411.718 381.601 425.587 384.184 434.461 397.069C437.487 401.461 439.783 406.316 441.789 411.348C441.724 411.572 441.811 411.749 441.995 411.88C445.261 420.174 447.788 428.918 451.525 436.856C451.555 436.921 451.599 436.973 451.639 437.03C446.043 447.145 440.447 457.259 434.8 467.341C433.158 470.274 431.495 473.193 429.83 476.111C416.633 476.118 403.434 476.063 390.24 475.848C383.349 475.737 376.462 475.36 369.574 475.233C365.97 475.166 361.52 475.269 358.519 477.85C357.626 478.619 354.262 483.303 355.498 483.003C354.752 483.183 354.319 483.599 354.147 484.065Z" fill="#11CCB6"/>
<path d="M401.29 293.374C400.1 292.126 403.646 290.537 404.739 291.68C409.671 296.846 425.273 307.535 416.823 316.039C415.758 317.111 412.083 316.761 413.75 315.081C420.57 308.217 405.24 297.513 401.29 293.374ZM411.227 331.113C409.536 331.942 407.908 331.478 406.394 330.444C404.991 329.485 401.711 331.558 403.51 332.786C406.438 334.786 409.727 335.065 412.888 333.514C413.567 333.182 414.331 332.232 413.772 331.421C413.197 330.591 411.982 330.743 411.227 331.113ZM395.185 310.088C395.736 309.672 396.258 308.651 395.43 308.179C394.027 307.38 392.927 306.132 391.817 304.934C391.162 304.227 390.079 304.336 389.298 304.726C388.776 304.985 387.713 305.935 388.373 306.647C389.634 308.008 390.919 309.474 392.511 310.381C393.345 310.856 394.43 310.657 395.185 310.088ZM415.129 296.46C415.975 296.949 417.039 296.804 417.808 296.198C418.37 295.755 418.865 294.662 418.028 294.179C416.855 293.502 416.285 292.191 415.712 290.953C415.307 290.081 413.781 290.382 413.179 290.689C412.409 291.082 411.866 291.819 412.278 292.706C412.965 294.19 413.724 295.649 415.129 296.46ZM382.972 293.392C378.688 295.06 376.045 298.551 375.951 303.541C375.936 304.297 379.671 303.712 379.694 302.456C379.758 299.041 381.167 295.677 384.3 294.457C384.521 294.369 385.978 293.684 385.394 293.216C384.788 292.729 383.583 293.155 382.972 293.392ZM404.671 285.165C405.391 285.056 406.528 284.703 406.816 283.868C407.217 282.708 407.73 282.428 408.722 282.411C409.555 282.399 410.665 282.097 411.203 281.346C411.742 280.591 410.746 280.298 410.225 280.306C407.458 280.349 404.147 281.36 403.088 284.432C402.799 285.273 404.322 285.22 404.671 285.165ZM643.848 486.282C612.615 486.282 581.382 486.282 550.149 486.282C549.678 486.585 549.194 486.777 548.695 486.833C548.139 486.894 547.778 486.847 547.557 486.74C484.041 486.74 420.524 486.74 357.009 486.74C356.4 486.74 355.98 486.557 355.713 486.283C328.26 486.283 300.808 486.283 273.354 486.283C275.069 490.009 275.822 494.137 275.064 498.216C274.809 499.584 271.7 500.229 271.331 499.084C271.049 499.175 270.813 499.231 270.67 499.231C245.91 499.231 221.149 499.231 196.39 499.231C196.11 499.231 195.969 499.19 195.914 499.126C195.799 499.091 195.731 499.044 195.739 498.979C196.159 495.689 197.298 492.763 198.934 490.186C198.643 490.298 198.365 490.366 198.141 490.366C187.806 490.366 177.471 490.366 167.137 490.366C164.62 490.366 167.438 488.359 168.664 488.359C178.998 488.359 189.333 488.359 199.668 488.359C199.886 488.359 200.051 488.378 200.193 488.406C201.791 486.351 203.711 484.548 205.871 483.029C205.879 483.023 205.892 483.019 205.898 483.014C205.101 481.454 205.077 479.401 205.446 477.71C207.193 469.728 214.269 465.776 221.5 466.896C222.071 466.984 222.406 467.208 222.576 467.495C225.127 465.884 227.963 464.736 230.889 464.127C233.506 463.582 231.74 465.419 230.219 465.736C226.166 466.579 222.404 469.223 219.883 472.753C218.651 474.481 217.541 476.406 216.928 478.505C216.642 479.475 215.646 481.35 217.756 481.355C219.374 481.167 220.792 480.546 222.006 479.487C222.704 478.958 226.465 478.498 224.892 479.69C221.851 481.99 218.331 483.458 214.699 482.922C212.638 484.586 209.465 486.307 207.08 484.471C207.066 484.46 207.056 484.445 207.041 484.433C203.136 487.722 200.29 492.245 199.532 497.639C223.498 497.639 247.464 497.639 271.427 497.639C272.505 488.395 265.264 477.966 256.867 475.636C254.862 479.059 251.668 481.404 247.505 481.694C244.002 481.939 239.819 480.276 238.469 476.721C236.304 479.497 233.131 481.743 229.707 481.647C226.591 481.562 224.362 479.441 225.006 475.849C226.633 466.771 237.742 458.813 246.214 461.005C248.119 459.8 250.178 458.99 252.196 458.742C261.612 457.58 265.809 468.389 266.013 476.952C266.013 476.966 266.007 476.98 266.006 476.993C268.521 478.957 270.701 481.481 272.333 484.309C272.665 484.161 272.997 484.063 273.275 484.063C276.578 484.063 279.88 484.063 283.183 484.063C282.938 483.793 282.843 483.395 283.023 482.861C286.778 471.652 290.324 460.361 293.983 449.112C293.489 449.188 293.035 449.157 292.754 448.948C275.724 436.167 276.291 409 284.496 390.792C288.734 381.386 294.94 375.1 302.23 368.42C308.92 362.286 318.666 354.079 317.072 343.244C316.13 336.832 313.039 330.998 311.311 324.801C309.464 318.176 308.273 311.611 308.274 304.671C308.278 293.498 312.686 280.938 321.078 274.09C324.774 271.073 329.261 269.483 333.117 266.757C338.147 263.2 339.562 259.278 342.127 253.865C344.855 248.098 349.583 246.702 355.314 246.786C355.321 246.786 355.325 246.787 355.332 246.787C375.36 240.367 402.193 234.682 418.072 253.643C424.774 261.643 429.034 272.227 436.934 279.037C446.093 286.934 460.719 283.062 468.227 293.801C480.956 312.007 472.241 341.287 458.638 355.971C450.382 364.883 443.313 374.48 447.279 387.873C449.931 396.824 452.714 404.155 445.649 411.16C448.483 418.342 450.879 425.777 453.947 432.85C459.474 422.854 464.991 412.85 470.551 402.873C472.431 399.5 474.761 392.715 477.789 389.851C484.976 377.018 498.061 376.893 510.731 378.372C522.289 379.721 534.064 379.323 545.676 379.398C558.828 379.486 571.979 379.52 585.133 379.525C590.523 379.528 604.19 378.688 604.263 385.835C604.761 385.944 604.934 386.212 604.294 386.698C604.271 386.716 604.228 386.78 604.196 386.822C604.06 387.741 603.735 388.77 603.165 389.932C603.005 390.258 602.583 390.516 602.078 390.7C601.901 391.042 601.737 391.355 601.62 391.571C599.255 395.907 596.919 400.264 594.588 404.622C588.109 416.725 581.663 428.848 575.198 440.961C569.308 451.998 563.427 463.043 557.446 474.025C556.335 476.063 554.565 480.948 552.31 484.066C583.314 484.066 614.318 484.066 645.323 484.066C647.851 484.065 645.2 486.282 643.848 486.282ZM243.556 463.051C237.857 461.992 230.622 467.792 229.117 473.608C228.681 475.297 228.099 479.034 230.58 479.404C232.872 479.746 234.786 477.183 235.924 475.387C236.226 474.91 237.186 474.565 238.043 474.476C238.035 474.251 238.023 474.028 238.036 473.79C238.258 469.732 240.496 465.865 243.556 463.051ZM261.995 474.48C261.318 469.286 259.327 463.566 254.966 461.288C249.311 458.334 241.153 466.704 241.794 473.341C242.122 476.737 244.546 479.729 247.843 479.962C250.929 480.18 252.875 477.667 254.042 474.795C253.797 474.423 254.045 473.912 254.511 473.489C254.802 472.588 255.026 471.688 255.189 470.856C255.393 469.806 259.09 469.15 258.888 470.175C258.691 471.181 258.414 472.146 258.071 473.067C259.404 473.381 260.718 473.856 261.995 474.48ZM209.639 481.78C210.359 482.697 211.722 481.371 212.506 480.703C212.632 480.596 212.771 480.515 212.913 480.445C214.028 476.157 216.379 472.588 219.437 469.855C214.887 469.478 210.453 471.924 209.32 477.103C209.015 478.502 208.686 480.564 209.639 481.78ZM354.147 484.065C354.32 483.599 354.753 483.183 355.497 483.002C354.261 483.303 357.623 478.618 358.517 477.85C361.517 475.269 365.969 475.165 369.573 475.232C376.461 475.361 383.348 475.736 390.238 475.848C403.434 476.063 416.633 476.118 429.829 476.111C431.494 473.193 433.155 470.273 434.799 467.341C440.445 457.259 446.041 447.145 451.638 437.03C451.598 436.973 451.555 436.921 451.524 436.856C447.787 428.918 445.26 420.175 441.994 411.88C441.808 411.749 441.723 411.572 441.787 411.348C439.781 406.317 437.486 401.462 434.46 397.069C425.585 384.184 411.716 381.601 397.82 380.617C397.868 389.075 397.39 404.205 386.066 401.971C376.466 400.077 371.181 388.032 366.006 379.824C363.309 379.939 356.011 380.262 349.655 380.673C332.665 383.334 318.406 392.416 310.97 411.355C301.734 434.879 294.64 459.286 286.6 483.294C286.494 483.61 286.272 483.867 285.988 484.063C297.679 484.063 309.37 484.063 321.06 484.063C321.067 483.928 321.089 483.787 321.151 483.624C328.232 464.832 332.174 444.841 337.183 425.341C337.592 423.743 341.403 423.206 340.955 424.949C335.883 444.694 331.861 464.901 324.691 483.929C324.673 483.977 324.643 484.019 324.619 484.065C334.461 484.065 344.303 484.065 354.147 484.065ZM354.169 249.304C354.434 249.41 354.598 249.49 354.598 249.49C354.598 249.49 354.905 249.367 355.492 249.155C355.43 249.176 355.367 249.194 355.303 249.215C354.846 249.363 354.477 249.364 354.169 249.304ZM548.72 483.626C549.326 482.574 549.925 481.519 550.515 480.456C550.9 479.764 551.272 479.062 551.656 478.368C518.472 478.399 485.29 479.036 452.108 479.183C445.379 479.212 438.648 479.232 431.919 479.24C431.008 480.945 429.971 482.57 428.825 483.608C468.713 483.608 508.602 483.608 548.49 483.608C548.573 483.608 548.642 483.621 548.72 483.626ZM358.61 483.608C380.92 483.608 403.229 483.608 425.537 483.608C425.907 483.227 426.539 482.881 427.209 482.817C424.992 483.025 425.118 484.17 426.375 482.083C426.94 481.142 427.493 480.194 428.044 479.245C416.176 479.249 404.309 479.201 392.442 479.018C385.407 478.911 378.368 478.778 371.337 478.466C366.981 478.27 360.989 477.573 358.948 482.797C358.838 483.075 358.725 483.345 358.61 483.608ZM394.065 380.325C393.408 380.138 393.326 379.682 393.569 379.2C392.039 365.431 400.024 359.362 409.421 354.313C414.452 350.68 423.381 345.669 428.261 342.999C447.765 324.895 427.269 291.672 413.521 276.454C413.235 276.139 414.053 275.576 414.985 275.22C414.921 275.132 414.884 275.079 414.884 275.079C414.884 275.079 414.866 275.084 414.851 275.089C399.294 282.415 379.094 282.389 362.505 277.377C370.652 296.809 384.291 325.932 362.189 339.875C361.81 340.114 361.22 340.221 360.658 340.213C359.894 340.452 359.069 340.484 358.649 340.093C358.092 339.572 357.487 339.089 356.782 338.828C356.677 338.789 356.596 338.774 356.532 338.765C356.407 338.853 356.244 338.994 356.067 339.247C355.717 339.744 355.416 340.279 355.178 340.85C354.021 343.629 353.805 347.08 354.201 350.066C354.528 352.516 355.318 355.978 357.731 356.979C360.465 358.114 364.452 353.039 366.203 350.867C366.246 350.811 366.305 350.774 366.351 350.722C366.482 350.494 366.755 350.295 367.107 350.134C367.45 349.947 367.821 349.83 368.21 349.785C369.119 349.594 370.007 349.612 370.01 349.918C370.053 359.021 370.508 368.091 369.364 377.14C369.338 377.334 369.22 377.501 369.046 377.649C373.251 384.062 376.724 391.397 382.357 396.521C393.709 406.854 394.145 388.64 394.065 380.325ZM358.074 359.527C358.533 359.552 359.026 359.464 359.548 359.268C359.061 359.399 358.57 359.49 358.074 359.527ZM452.813 441.05C446.855 451.812 440.912 462.585 434.853 473.282C434.467 473.964 434.002 474.973 433.468 476.109C439.24 476.101 445.012 476.084 450.782 476.06C484.86 475.911 518.937 475.252 553.013 475.231C553.135 475.231 553.245 475.245 553.354 475.259C554.521 473.119 555.698 470.983 556.858 468.837C563.274 456.958 569.624 445.036 575.979 433.117C581.907 421.999 587.82 410.871 593.785 399.777C595.549 396.496 597.618 390.203 600.406 387.157C600.587 379.615 584.022 381.422 578.632 381.417C567.622 381.403 556.61 381.378 545.6 381.304C535.986 381.24 526.366 381.213 516.755 380.907C504.161 380.51 489.436 375.456 481.605 389.017C481.855 389.159 481.848 389.396 481.354 389.763C480.941 390.069 479.174 393.57 478.5 394.764C476.317 398.631 474.154 402.512 471.997 406.395C465.583 417.937 459.206 429.499 452.813 441.05ZM353.075 248.944C353.328 249.012 353.559 249.082 353.76 249.15C353.659 249.088 353.568 249.021 353.503 248.934C353.358 248.935 353.216 248.938 353.075 248.944ZM181.542 299.161C179.684 307.019 175.924 312.958 171.889 319.66C167.365 327.179 166.242 334.385 167.46 343.199C168.112 347.909 169.235 353.136 166.691 357.406C164.724 360.707 160.643 361.76 157.151 362.323C154.242 363.205 151.057 363.54 148.79 361.581C144.78 358.118 144.659 351.54 143.315 346.604C140.497 336.24 134.375 332.594 126.479 327.15C121.003 323.373 116.383 318.475 113.544 312.08C103.128 288.608 112.412 254.512 137.79 248.571C137.865 248.553 137.923 248.56 137.993 248.547C138.218 248.348 138.492 248.166 138.877 248.042C166.027 239.282 187.971 271.959 181.542 299.161ZM163.923 345.759C163.836 345.133 163.748 344.499 163.662 343.858C163.544 343.911 163.449 343.977 163.309 344.016C159.388 345.114 155.468 346.216 151.547 347.314C149.248 347.959 148.594 345.349 150.898 344.703C154.819 343.604 158.74 342.503 162.661 341.404C162.914 341.333 163.14 341.316 163.352 341.316C163.136 339.364 163.002 337.389 163.047 335.436C157.115 337.1 151.183 338.764 145.252 340.428C146.634 343.827 147.485 347.374 148.33 351.12C148.609 352.353 148.904 353.489 149.237 354.523C152.29 353.668 155.342 352.81 158.394 351.955C158.773 351.849 160.276 351.455 160.45 352.154C160.622 352.851 159.142 353.333 158.762 353.439C155.762 354.282 152.76 355.124 149.76 355.964C150.869 358.643 152.451 360.266 155.171 360.255C155.441 360.09 155.748 359.966 156.088 359.919C164.684 358.714 164.998 353.536 163.923 345.759ZM139.479 250.465C139.036 250.609 138.68 250.605 138.374 250.545C138.343 250.553 138.324 250.567 138.29 250.574C115.541 255.901 107.447 288.813 116.671 309.598C119.849 316.759 124.548 322.202 130.95 326.156C135.23 328.797 140.327 331.437 143.105 336.071C143.443 336.637 143.756 337.206 144.051 337.78C150.461 335.982 156.871 334.184 163.281 332.384C163.363 331.812 163.463 331.24 163.592 330.676C166.252 319.153 175.517 311.361 177.775 299.562C182.356 275.602 165.722 242 139.479 250.465ZM96.506 298.822C92.0957 300.06 87.6854 301.297 83.2751 302.534C80.9873 303.176 81.5906 305.587 83.8732 304.948C88.2835 303.711 92.6938 302.473 97.1041 301.236C99.392 300.592 98.7887 298.183 96.506 298.822ZM102.531 323.062C99.4669 327.247 96.4066 331.434 93.3423 335.618C92.3308 337 96.0913 336.649 96.8161 335.658C99.8803 331.473 102.941 327.288 106.005 323.103C107.018 321.721 103.257 322.071 102.531 323.062ZM95.5682 274.4C96.5913 275.124 99.9165 273.495 99.0626 272.889C95.1225 270.101 91.1837 267.312 87.2449 264.522C86.2218 263.797 82.8966 265.426 83.7505 266.032C87.688 268.82 91.6281 271.609 95.5682 274.4ZM194.149 274.06C198.559 272.822 202.97 271.585 207.38 270.347C209.675 269.703 209.049 267.2 206.76 267.844C202.349 269.081 197.939 270.316 193.529 271.555C191.232 272.199 191.86 274.702 194.149 274.06ZM196.605 296.988C195.615 296.478 192.668 298.149 193.075 298.359C197.258 300.513 201.443 302.665 205.626 304.817C206.616 305.325 209.562 303.654 209.155 303.446C204.971 301.295 200.788 299.142 196.605 296.988ZM190.611 235.149C187.983 239.779 185.355 244.412 182.725 249.043C181.706 250.837 185.508 250.654 186.26 249.329C188.889 244.699 191.517 240.067 194.145 235.435C195.164 233.64 191.361 233.824 190.611 235.149ZM208.164 384.259C190.082 389.427 172.016 394.665 153.96 399.942C135.824 405.242 117.695 410.566 99.5974 416.019C93.177 417.954 86.7592 419.889 80.3607 421.91C78.4243 422.522 76.4866 423.126 74.5643 423.785C74.386 423.846 74.1173 423.966 73.837 424.093C73.7673 424.634 73.6458 425.12 73.4159 425.477C72.6576 426.652 68.8609 426.902 69.9034 425.283C69.9538 425.203 69.9899 425.079 70.0171 424.928C69.5494 424.931 69.2898 424.846 69.5456 424.636C69.7225 424.491 69.8931 424.385 70.0752 424.283C70.1127 422.76 69.7367 420.097 69.6541 419.064C66.5963 380.891 60.8373 342.836 55.8147 304.924C53.1135 284.544 50.3696 264.171 47.5328 243.814C46.622 237.283 45.71 230.753 44.7515 224.229C44.3949 221.802 44.3458 218.842 43.523 216.524C43.2452 215.74 44.2167 215.038 45.2462 214.804C45.2643 214.794 45.276 214.784 45.294 214.776C53.8317 210.339 64.3201 208.534 73.3823 205.804C92.6318 200.006 111.915 194.337 131.207 188.707C149.983 183.227 168.764 177.777 187.572 172.424C193.444 170.755 199.315 169.08 205.201 167.472C207.322 166.892 210.059 165.627 212.295 165.9C212.441 165.905 212.55 165.975 212.621 166.105C212.621 166.108 212.621 166.112 212.621 166.115C212.613 166.303 212.494 166.469 212.313 166.619C212.449 166.727 212.558 166.866 212.621 167.044C213.324 169.053 213.339 171.632 213.625 173.735C218.807 211.868 223.311 250.125 227.773 288.362C230.144 308.688 232.494 329.017 234.528 349.385C235.165 355.77 235.81 362.162 236.235 368.57C236.337 370.111 236.998 373.324 236.527 375.266C236.779 375.263 237.03 375.266 237.27 375.296C237.416 375.301 237.525 375.371 237.596 375.501C237.596 375.504 237.596 375.508 237.596 375.511C237.57 376.102 236.512 376.506 235.525 376.686C234.999 376.953 234.3 377.102 233.703 377.098C233.506 377.151 233.278 377.212 232.989 377.289C231.055 377.805 229.125 378.337 227.195 378.875C220.846 380.643 214.504 382.447 208.164 384.259ZM208.876 167.201C208.873 167.276 208.921 167.324 208.992 167.357C208.999 167.347 209.008 167.339 209.013 167.331C208.926 167.3 208.873 167.258 208.876 167.201ZM156.182 398.104C174.958 392.624 193.739 387.174 212.547 381.822C218.419 380.152 224.29 378.477 230.175 376.869C230.923 376.665 231.751 376.375 232.604 376.097C232.629 376.051 232.642 376.009 232.674 375.959C233.047 375.381 232.636 371.888 232.561 370.707C230.155 332.83 224.756 295.004 220.225 257.378C217.749 236.823 215.229 216.274 212.61 195.74C211.768 189.134 210.923 182.527 210.031 175.931C209.7 173.484 209.694 170.466 208.874 168.129C208.819 167.97 208.822 167.815 208.859 167.666C208.639 167.724 208.364 167.798 208.013 167.892C206.079 168.408 204.149 168.94 202.219 169.478C195.868 171.246 189.527 173.05 183.186 174.86C165.105 180.028 147.039 185.266 128.983 190.543C110.847 195.843 92.7171 201.168 74.6199 206.62C68.1995 208.555 61.7817 210.49 55.3832 212.511C53.4468 213.123 51.509 213.727 49.5868 214.386C48.9099 214.619 46.9269 215.694 47.9397 214.862C47.7873 214.988 47.4927 215.105 47.1427 215.207C47.1917 215.277 47.2357 215.352 47.2667 215.437C48.0883 217.755 48.1387 220.716 48.4939 223.145C54.1172 261.53 59.1412 300.028 64.0863 338.52C66.6738 358.665 69.242 378.819 71.491 399.013C72.1938 405.324 72.9056 411.644 73.3965 417.98C73.4766 419.013 73.8202 420.831 73.89 422.494C81.6642 419.231 90.5391 417.556 98.3572 415.2C117.608 409.404 136.891 403.734 156.182 398.104ZM357.432 135.624C352.318 115.626 366.925 96.9717 385.508 96.8823C385.75 96.7734 386.022 96.6981 386.32 96.6841C404.758 95.82 421.458 115.653 414.492 135.727C412.494 141.485 409.166 145.626 404.819 149.493C399.55 154.18 396.874 158.904 396.672 166.316C396.431 175.011 392.849 178.109 385.148 177.652C382.576 177.76 379.774 177.393 378.497 175.184C376.639 171.974 377.071 168.308 376.611 164.694C374.931 151.489 360.667 148.275 357.432 135.624ZM392.894 166.426C392.828 166.433 392.764 166.445 392.697 166.447C389.479 166.506 386.262 166.566 383.043 166.626C380.49 166.672 381.334 163.857 383.414 163.817C386.631 163.757 389.848 163.698 393.067 163.638C393.069 163.638 393.071 163.638 393.074 163.638C393.16 162.646 393.281 161.639 393.474 160.651C388.944 160.735 384.412 160.817 379.882 160.902C380.481 164.123 380.416 167.541 381.033 170.233C383.667 170.184 386.301 170.135 388.936 170.086C389.339 170.079 390.46 170.209 389.86 170.907C389.289 171.573 388.175 171.9 387.364 171.916C385.447 171.951 383.527 171.988 381.61 172.022C382.259 173.476 383.31 174.549 385.117 174.994C385.291 174.961 385.464 174.941 385.629 174.957C392.669 175.595 392.657 171.625 392.894 166.426ZM362.851 138.903C366.816 146.385 376.011 150.029 379.066 157.943C384.16 157.849 389.255 157.753 394.35 157.661C394.566 157.132 394.805 156.614 395.094 156.128C399.441 148.877 407.513 145.365 410.445 136.915C416.655 119.02 403.858 98.4695 385.904 99.3099C385.412 99.3337 385.053 99.2541 384.802 99.1089C384.678 99.1368 384.559 99.1536 384.448 99.1522C366.727 98.9805 353.853 121.919 362.851 138.903ZM335.31 126.328C338.931 126.261 342.549 126.192 346.169 126.124C348.18 126.086 349.149 123.462 346.587 123.509C342.966 123.578 339.348 123.646 335.728 123.713C333.716 123.751 332.748 126.375 335.31 126.328ZM350.451 140.567C349.519 140.378 348.551 140.752 347.803 141.333C344.864 143.618 341.926 145.905 338.988 148.189C338.33 148.7 338.615 149.415 339.327 149.557C340.26 149.745 341.228 149.371 341.976 148.791C344.914 146.507 347.852 144.22 350.791 141.935C351.448 141.425 351.164 140.712 350.451 140.567ZM348.392 107.901C349.301 108.754 352.758 107.21 351.886 106.393C349.153 103.827 346.416 101.267 343.678 98.7069C342.769 97.8539 339.312 99.3993 340.184 100.215C342.921 102.778 345.659 105.338 348.392 107.901ZM284.454 202.074C284.437 202.029 284.423 201.986 284.423 201.933C284.423 158.925 284.423 115.919 284.423 72.9105C282.513 72.8072 284.767 71.3847 285.955 71.1683C286.736 70.9129 287.593 70.878 287.969 71.139C353.701 71.139 419.435 71.139 485.167 71.139C485.742 71.139 486.017 71.2367 486.101 71.3819C487.209 70.8361 488.831 70.7677 488.831 71.488C488.831 114.609 488.831 157.728 488.831 200.848C488.831 201.973 486.618 202.653 485.596 202.41C485.011 202.825 484.092 203.213 483.582 203.213C417.268 203.213 350.955 203.213 284.64 203.213C283.155 203.213 283.613 202.585 284.454 202.074ZM483.582 72.9217C418.444 72.9217 353.306 72.9217 288.167 72.9217C288.167 115.563 288.167 158.206 288.167 200.848C288.167 201.059 288.083 201.253 287.947 201.43C353.659 201.43 419.372 201.43 485.086 201.43C485.086 158.477 485.086 115.526 485.086 72.5727C485.086 72.5182 485.101 72.468 485.111 72.4163C484.578 72.7011 483.966 72.9217 483.582 72.9217ZM272.042 211.226C272.042 162.121 272.042 113.017 272.042 63.9148C270.426 63.3983 271.235 61.1117 273.118 61.1117C347.651 61.1117 422.184 61.1117 496.716 61.1117C497.47 61.1117 497.928 61.3713 498.15 61.7301C499.212 60.9316 501.334 60.8925 501.334 62.3751C501.334 111.759 501.334 161.145 501.334 210.531C501.334 211.812 499.015 212.528 498.016 211.825C497.518 212.419 496.557 213.003 495.832 213.003C421.3 213.003 346.767 213.003 272.235 213.003C270.561 213.001 271.076 211.945 272.042 211.226ZM496.37 64.0195C422.841 64.0195 349.314 64.0195 275.786 64.0195C275.786 112.738 275.786 161.459 275.786 210.177C275.786 210.317 275.737 210.447 275.662 210.571C349.526 210.571 423.389 210.571 497.253 210.571C497.37 210.571 497.463 210.581 497.558 210.592C497.558 161.61 497.558 112.628 497.558 63.6454C497.243 63.8702 496.843 64.0195 496.37 64.0195ZM418.761 144.742C420.716 142.446 422.848 140.201 425.005 137.937C425.074 137.514 425.475 137.141 426.004 136.887C434.151 128.321 442.305 119.349 442.245 106.333C442.237 104.545 446.025 103.91 446.035 106.012C446.096 119.367 437.788 128.769 429.528 137.55C436.806 141.798 448.586 140.416 453.856 147.494C459.553 155.146 459.675 165.276 461.881 174.45C462.331 174.496 462.499 174.672 462.03 175.043C462.143 175.484 462.253 175.927 462.375 176.363C462.762 177.739 459.029 178.861 458.632 177.444C458.628 177.43 458.624 177.415 458.621 177.403C454.75 180.023 450.869 182.608 447.561 186.069C446.908 186.753 443.349 187.207 444.167 186.352C444.419 186.088 444.685 185.845 444.945 185.589C444.731 185.563 444.54 185.501 444.39 185.393C437.595 180.492 429.799 175.271 425.22 167.77C423.272 164.582 423.87 160.658 424.78 157.198C426.249 151.619 427.27 146.69 425.977 141.323C421.64 145.946 416.995 150.989 414.881 157.24C411.945 165.928 414.722 174.149 419.16 181.602C420.206 183.361 416.632 184.888 415.729 183.372C407.546 169.624 408.565 156.711 418.761 144.742ZM431.136 141.559C434.961 147.657 439.279 153.378 443.079 159.495C443.073 158.236 446.336 157.267 446.873 158.677C447.915 161.407 448.502 165.163 445.77 166.977C442.727 169 439.489 167.053 437.239 164.687C436.893 164.322 437.172 163.76 437.456 163.482C438.197 162.755 439.137 162.118 440.151 161.91C437.141 156.907 433.746 152.201 430.492 147.385C430.409 148.765 430.211 150.164 429.865 151.596C428.917 155.507 426.359 161.361 428.288 165.312C432.143 173.212 440.665 178.49 447.336 183.302C447.359 183.319 447.369 183.334 447.39 183.351C450.794 180.486 454.53 178.128 458.168 175.592C456.23 166.991 456.313 155.416 450.378 149.072C445.526 143.885 437.818 143.75 431.136 141.559ZM442.168 164.419C442.604 164.758 443.062 165.055 443.566 165.256C443.6 165.27 443.635 165.278 443.67 165.285C443.88 164.846 443.986 164.364 444.013 163.864C443.433 164.128 442.805 164.346 442.168 164.419ZM663.11 248.299C659.254 254.706 654.159 258.864 648.043 262.549C640.263 267.238 636.327 272.561 634.474 281.945C632.468 292.106 627.616 295.39 618.762 293.248C615.439 292.817 611.853 291.731 610.635 288.382C608.931 283.7 610.649 278.553 610.719 273.724C610.949 257.734 594.655 250.382 592.729 234.726C589.45 208.079 612.349 186.252 636.288 191.332C636.315 191.339 636.333 191.347 636.36 191.354C636.58 191.304 636.802 191.287 637.014 191.318C660.698 194.643 676.947 225.303 663.11 248.299ZM633.183 273.674C626.918 272.558 620.654 271.446 614.389 270.332C614.421 270.727 614.467 271.113 614.48 271.524C614.606 275.166 613.748 278.734 613.672 282.361C613.668 282.524 613.681 282.671 613.681 282.827C613.713 282.83 613.749 282.827 613.776 282.833C617.356 283.468 620.934 284.103 624.515 284.738C626.48 285.087 623.037 286.715 622.128 286.554C619.388 286.067 616.648 285.581 613.908 285.096C614.483 287.876 616.116 289.431 618.402 290.294C618.707 290.23 618.999 290.22 619.242 290.294C620.127 290.561 621.136 290.886 622.169 291.129C622.703 291.189 623.248 291.239 623.811 291.273C624.2 291.296 624.456 291.371 624.626 291.475C626.485 291.505 628.17 290.857 629.066 288.619C629.875 286.6 630.282 284.49 630.707 282.348C630.831 281.723 630.96 281.106 631.096 280.499C630.728 280.668 630.321 280.751 629.929 280.681C625.839 279.956 621.75 279.228 617.66 278.501C615.15 278.056 617.229 275.387 618.989 275.698C623.079 276.425 627.169 277.152 631.259 277.878C631.434 277.909 631.582 277.954 631.715 278.004C632.114 276.519 632.593 275.079 633.183 273.674ZM635.643 193.956C635.11 193.881 634.8 193.706 634.641 193.484C634.397 193.536 634.169 193.553 633.992 193.515C608.752 188.159 585.461 220.991 600.477 245.447C605.159 253.072 611.862 258.393 613.886 267.064C613.913 267.066 613.942 267.064 613.969 267.069C620.852 268.292 627.736 269.516 634.62 270.742C634.793 270.435 634.96 270.129 635.147 269.826C637.497 266.038 641.416 263.544 645.01 261.378C651.119 257.697 656.949 253.595 660.293 246.681C670.718 225.121 658.267 197.135 635.643 193.956ZM725.474 181.276C724.876 182.964 724.823 185.094 724.56 186.862C719.017 224.104 714.192 261.487 709.364 298.843C706.693 319.519 704.051 340.203 701.691 360.924C700.91 367.775 700.133 374.632 699.534 381.506C699.416 382.872 698.734 386.652 698.811 388.816C699.069 388.965 699.31 389.128 699.527 389.307C699.749 389.49 699.5 389.798 699.047 390.093C699.06 390.117 699.068 390.149 699.081 390.17C699.909 391.455 696.279 392.78 695.597 391.721C695.34 391.321 695.202 390.774 695.142 390.154C693.091 389.043 689.826 388.555 687.847 387.928C681.57 385.947 675.275 384.036 668.975 382.139C650.557 376.591 632.107 371.165 613.65 365.771C595.275 360.403 576.892 355.068 558.489 349.815C552.271 348.04 546.052 346.267 539.823 344.542C537.973 344.03 536.125 343.516 534.268 343.026C533.782 342.899 531.852 342.653 532.297 342.518C531.79 342.528 531.417 342.419 531.407 342.162C531.407 342.159 531.407 342.156 531.407 342.152C531.385 341.665 531.858 341.341 532.418 341.123C532.19 339.473 532.615 337.216 532.693 335.978C535.101 298.101 540.5 260.275 545.032 222.648C547.508 202.092 550.028 181.544 552.647 161.01C553.489 154.405 554.334 147.798 555.227 141.201C555.559 138.753 555.564 135.735 556.383 133.398C556.423 133.283 556.494 133.176 556.575 133.075C556.453 132.887 556.374 132.66 556.361 132.382C556.361 132.379 556.361 132.375 556.361 132.372C556.316 131.364 557.737 130.833 558.425 130.749C560.659 130.477 563.65 131.937 565.759 132.518C571.916 134.216 578.06 135.963 584.204 137.715C603.232 143.144 622.242 148.654 641.241 154.206C660.329 159.784 679.413 165.387 698.457 171.144C704.689 173.029 710.922 174.909 717.125 176.9C719.208 177.569 722.405 177.987 724.192 179.459C724.618 179.809 724.732 180.196 724.644 180.564C725.234 180.595 725.637 180.816 725.474 181.276ZM721.695 181.983C721.552 181.934 721.415 181.871 721.299 181.775C720.117 180.803 715.41 179.739 713.268 179.064C706.992 177.083 700.696 175.173 694.397 173.276C675.978 167.727 657.529 162.301 639.07 156.908C620.695 151.539 602.313 146.204 583.911 140.951C577.693 139.176 571.474 137.403 565.245 135.678C563.435 135.177 561.624 134.674 559.808 134.196C559.606 135.326 559.544 136.546 559.397 137.609C554.27 174.542 549.973 211.628 545.623 248.676C543.174 269.528 540.756 290.386 538.619 311.279C537.91 318.21 537.203 325.145 536.677 332.094C536.543 333.88 535.551 339.653 536.305 340.82C536.329 340.855 536.335 340.889 536.352 340.924C538.04 341.296 539.82 342.059 541.225 342.448C547.381 344.146 553.527 345.892 559.669 347.644C578.699 353.073 597.709 358.583 616.708 364.135C635.796 369.713 654.88 375.316 673.924 381.073C680.154 382.958 686.387 384.838 692.592 386.829C693.348 387.072 694.269 387.28 695.216 387.522C695.345 386.3 695.544 385.12 695.605 384.357C698.662 346.182 704.423 308.129 709.447 270.216C712.147 249.836 714.89 229.464 717.729 209.107C718.639 202.575 719.551 196.044 720.51 189.522C720.86 187.149 720.925 184.278 721.695 181.983ZM710.833 193.588C708.48 200.318 708.216 208.781 707.092 215.823C704.646 231.149 702.273 246.488 699.966 261.839C697.642 277.313 695.346 292.797 693.299 308.318C692.591 313.678 691.884 319.043 691.342 324.426C691.225 325.571 690.607 328.632 690.669 330.426C690.883 330.55 691.087 330.684 691.273 330.831C691.477 330.991 691.28 331.266 690.89 331.541C690.891 331.543 690.892 331.547 690.893 331.55C691.694 332.874 688.055 334.17 687.409 333.101C687.194 332.742 687.076 332.281 687.022 331.769C685.262 330.814 682.608 330.441 680.909 329.905C675.712 328.265 670.498 326.68 665.283 325.11C649.608 320.385 633.906 315.767 618.197 311.177C602.544 306.605 586.883 302.06 571.204 297.585C566.039 296.111 560.872 294.638 555.696 293.203C554.142 292.772 552.588 292.341 551.028 291.929C550.899 291.895 550.645 291.847 550.364 291.795C550.354 291.793 550.344 291.792 550.333 291.789C549.572 291.648 548.649 291.478 549.534 291.45C549.535 291.449 549.536 291.449 549.539 291.447C548.893 291.474 548.403 291.323 548.478 290.925C548.48 290.922 548.48 290.918 548.48 290.915C548.542 290.587 548.881 290.333 549.301 290.143C549.075 288.525 549.509 286.342 549.609 285.086C550.007 280.087 550.556 275.103 551.129 270.124C552.935 254.423 554.999 238.757 557.11 223.101C559.25 207.233 561.451 191.372 563.743 175.529C564.762 168.486 564.861 159.89 567.177 153.154C567.196 153.101 567.227 153.052 567.255 153.004C567.148 152.814 567.101 152.578 567.157 152.28C567.157 152.278 567.158 152.275 567.158 152.271C567.34 151.299 568.354 150.676 569.224 150.649C571.386 150.576 573.855 151.689 575.915 152.258C581.151 153.706 586.379 155.191 591.605 156.682C607.595 161.245 623.57 165.875 639.534 170.543C655.558 175.225 671.579 179.929 687.566 184.759C692.845 186.355 698.125 187.948 703.381 189.63C705.269 190.234 708.049 190.613 709.686 191.912C710.073 192.219 710.197 192.557 710.157 192.887C710.657 192.95 710.979 193.169 710.833 193.588ZM707.026 194.369C706.944 194.33 706.864 194.284 706.792 194.228C705.844 193.476 701.875 192.539 700.077 191.972C694.88 190.331 689.666 188.748 684.451 187.176C668.775 182.452 653.074 177.833 637.364 173.244C621.711 168.672 606.05 164.125 590.372 159.653C585.206 158.177 580.04 156.706 574.864 155.271C573.411 154.869 571.959 154.467 570.503 154.078C568.719 160.261 568.543 167.751 567.641 173.987C565.432 189.253 563.299 204.532 561.232 219.821C559.135 235.348 557.066 250.884 555.244 266.452C554.613 271.846 553.981 277.243 553.515 282.658C553.386 284.144 552.518 288.733 553.159 289.783C553.19 289.835 553.204 289.885 553.224 289.937C554.732 290.269 556.265 290.875 557.636 291.253C562.873 292.699 568.1 294.185 573.325 295.676C589.316 300.241 605.29 304.87 621.256 309.536C637.28 314.219 653.3 318.923 669.286 323.754C674.566 325.35 679.847 326.943 685.102 328.625C685.696 328.815 686.395 328.984 687.119 329.167C687.225 328.3 687.364 327.482 687.42 326.886C687.92 321.567 688.593 316.271 689.285 310.978C691.351 295.212 693.662 279.484 696.023 263.768C698.399 247.953 700.835 232.147 703.358 216.359C704.469 209.403 704.746 201.062 707.026 194.369ZM668.669 338.439C668.927 338.439 668.878 338.398 668.669 338.439ZM667.272 339.427C667.772 338.71 668.376 338.495 668.669 338.439C668.474 338.437 668.103 338.412 667.483 338.309C666.068 338.07 664.667 337.745 663.268 337.423C658.693 336.369 654.152 335.132 649.619 333.892C637.29 330.518 625.02 326.888 612.764 323.221C600.836 319.653 588.927 316.011 577.042 312.28C573.063 311.03 569.087 309.77 565.121 308.47C563.948 308.086 562.778 307.695 561.61 307.289C560.506 306.905 560.51 306.546 560.423 307.281C560.355 307.32 560.288 307.36 560.224 307.398C560.481 306.895 560.196 306.448 558.889 306.587C558.876 306.588 558.863 306.589 558.85 306.591C558.301 306.648 556.792 307.082 556.699 307.864C556.698 307.87 556.697 307.874 556.697 307.879C556.647 308.059 556.684 308.213 556.812 308.341C558.092 309.316 560.105 309.62 561.567 310.106C566.015 311.579 570.483 312.982 574.952 314.383C588.565 318.656 602.215 322.801 615.882 326.862C628.636 330.652 641.41 334.395 654.266 337.759C657.191 338.524 668.096 343.139 670.723 339.369C671.646 338.04 667.922 338.495 667.272 339.427ZM646.412 349.801C646.997 349.013 647.726 348.833 648.029 348.798C647.87 348.793 647.571 348.768 647.059 348.676C646.107 348.505 645.161 348.276 644.218 348.056C641.204 347.344 638.216 346.505 635.232 345.666C627.529 343.502 619.867 341.165 612.216 338.806C604.811 336.522 597.421 334.185 590.045 331.791C587.3 330.899 580.885 329.828 579.061 328.09C579.022 328.131 578.984 328.173 578.943 328.213C578.785 327.827 578.163 327.617 577.126 327.966C577.117 327.969 577.107 327.972 577.099 327.976C576.764 328.088 574.816 328.881 575.567 329.598C578.227 332.133 584.691 332.845 587.962 333.907C597.042 336.854 606.151 339.702 615.275 342.483C623.386 344.955 631.514 347.395 639.712 349.513C642.078 350.125 647.828 352.48 649.862 349.742C650.811 348.466 647.087 348.891 646.412 349.801ZM648.029 348.798C648.227 348.805 648.198 348.782 648.029 348.798Z" fill="#6842FF"/>
</svg>
