<svg width="71" height="70" viewBox="0 0 71 70" fill="none" xmlns="http://www.w3.org/2000/svg">
<g clip-path="url(#clip0_118_527)">
<path d="M57.375 0H39.875C32.6388 0 26.75 5.88875 26.75 13.125V23.3333C26.75 24.9433 28.0538 26.25 29.6667 26.25C31.2796 26.25 32.5833 24.9433 32.5833 23.3333V13.125C32.5833 9.10583 35.8529 5.83333 39.875 5.83333H57.375C61.3971 5.83333 64.6667 9.10583 64.6667 13.125V40.8333H44.2092C44.1188 38.3483 43.0571 35.91 41.0213 34.1775C37.5679 31.2463 32.4025 31.2987 28.99 34.3175L16.0458 45.9842C14.85 47.0633 14.7567 48.9067 15.8329 50.1025C16.915 51.2983 18.7554 51.3917 19.9542 50.3154L32.875 38.6692C34.1204 37.5754 35.99 37.5608 37.2442 38.6225C38.6413 39.8125 38.8133 41.9183 37.4483 43.5488L25.8983 60.2642C24.5479 62.2213 23.8333 64.5167 23.8333 67.0804C23.8333 68.6904 25.1371 69.9037 26.75 69.9037C28.3629 69.9037 29.6667 68.5038 29.6667 66.8938C29.6667 65.7038 30.0225 64.5575 30.6992 63.5775L32.0933 61.5563C34.3392 63.2246 37.0225 64.1637 39.8779 64.1637H57.3779C64.6142 64.1637 70.5029 58.275 70.5029 51.0388V13.125C70.5029 5.88875 64.6113 0 57.375 0ZM64.6667 51.0417C64.6667 55.0608 61.3971 58.3333 57.375 58.3333H39.875C38.2242 58.3333 36.6783 57.7617 35.4038 56.7613C35.7333 56.2829 42.045 47.1362 42.3658 46.6667H64.6667V51.0417ZM44.25 52.5C44.25 50.89 45.5538 49.5833 47.1667 49.5833H50.0833C51.6963 49.5833 53 50.89 53 52.5C53 54.11 51.6963 55.4167 50.0833 55.4167H47.1667C45.5538 55.4167 44.25 54.11 44.25 52.5ZM20.0621 25.3954L13.1671 32.2904C8.76 36.6975 6.33333 42.56 6.33333 48.79V67.0833C6.33333 68.6933 5.02958 70 3.41667 70C1.80375 70 0.5 68.6933 0.5 67.0833V48.79C0.5 40.9996 3.53333 33.6758 9.04292 28.1663L15.9379 21.2713C17.0783 20.1308 18.9217 20.1308 20.0621 21.2713C21.2025 22.4117 21.2025 24.2579 20.0621 25.3954Z" fill="#6842FF"/>
</g>
<defs>
<clipPath id="clip0_118_527">
<rect width="70" height="70" fill="white" transform="translate(0.5)"/>
</clipPath>
</defs>
</svg>
