<svg width="19" height="20" viewBox="0 0 19 20" fill="none" xmlns="http://www.w3.org/2000/svg">
<g clip-path="url(#clip0_186_119)">
<path d="M9.13958 20C14.1872 20 18.2792 15.5228 18.2792 10C18.2792 4.47715 14.1872 0 9.13958 0C4.09193 0 0 4.47715 0 10C0 15.5228 4.09193 20 9.13958 20Z" fill="#6842FF"/>
<path fill-rule="evenodd" clip-rule="evenodd" d="M7.15621 12.2589C6.79016 11.9813 6.06968 11.104 5.7017 10.7035C5.09743 10.0423 4.6268 9.27948 3.84241 9.57827C3.52671 9.69906 3.2575 10.0381 3.20521 10.4323C3.1258 11.015 3.4047 11.2799 3.63905 11.5363C4.14454 12.0873 4.60743 12.5937 5.11099 13.1468C6.84051 15.0392 6.91411 15.6283 8.42479 13.9754C9.4106 12.8968 10.3557 11.8627 11.3415 10.784C12.3274 9.70541 13.2725 8.6713 14.2583 7.59268C14.634 7.18157 15.4843 6.52042 14.8781 5.56047C14.7076 5.29134 14.2796 5.04341 13.8051 5.17691C13.4894 5.26591 13.1679 5.70245 12.9897 5.89528C12.002 6.97178 11.0588 8.0059 10.073 9.08452C9.39317 9.82832 7.74886 11.6868 7.15814 12.2568L7.15621 12.2589Z" fill="#FEFEFE"/>
</g>
<defs>
<clipPath id="clip0_186_119">
<rect width="18.2792" height="20" fill="white"/>
</clipPath>
</defs>
</svg>
