<svg width="53" height="53" viewBox="0 0 53 53" fill="none" xmlns="http://www.w3.org/2000/svg">
<g clip-path="url(#clip0_118_696)">
<path d="M48.1667 18.3536L52.5 14.0203V43.8336H28.6667V48.1669H38.4167V52.5003H14.5833V48.1669H24.3333V43.8336H0.5V11.3336C0.5 7.74994 3.41633 4.8336 7 4.8336H35.2512L31.3728 9.16694H7C5.80617 9.16694 4.83333 10.1376 4.83333 11.3336V39.5003H48.1667V18.3536ZM26.5 22.1669C17.8333 22.1669 15.6667 35.1669 15.6667 35.1669H26.5C30.0902 35.1669 33 32.2571 33 28.6669C33 25.0768 30.0902 22.1669 26.5 22.1669ZM32.1745 19.4803L44.6068 5.50744C45.3608 4.66461 46.6565 4.5931 47.4972 5.3471C47.5253 5.3731 47.5513 5.39694 47.5795 5.4251C48.379 6.22244 48.379 7.51594 47.5817 8.31544C47.5817 8.31544 47.5817 8.31544 47.5795 8.3176L34.4885 21.4108C35.496 22.5179 36.2587 23.8331 36.7397 25.2848L50.6345 11.3899C53.1218 8.89827 53.1218 4.86177 50.6345 2.3701C48.145 -0.121562 44.1085 -0.123728 41.6168 2.36577C41.5323 2.45027 41.45 2.53694 41.3698 2.62577L27.7242 17.9571C29.3427 18.1434 30.8507 18.6613 32.1745 19.4803Z" fill="#6842FF"/>
</g>
<defs>
<clipPath id="clip0_118_696">
<rect width="52" height="52" fill="white" transform="translate(0.5 0.5)"/>
</clipPath>
</defs>
</svg>
