<svg width="71" height="71" viewBox="0 0 71 71" fill="none" xmlns="http://www.w3.org/2000/svg">
<path d="M58.8333 44.25H47.1667V32.5833C47.1667 30.9733 45.8629 29.6667 44.25 29.6667C42.6371 29.6667 41.3333 30.9733 41.3333 32.5833V44.25H12.1667C5.7325 44.25 0.5 49.4825 0.5 55.9167V58.8333C0.5 65.2675 5.7325 70.5 12.1667 70.5H58.8333C65.2675 70.5 70.5 65.2675 70.5 58.8333V55.9167C70.5 49.4825 65.2675 44.25 58.8333 44.25ZM64.6667 58.8333C64.6667 62.0504 62.0504 64.6667 58.8333 64.6667H12.1667C8.94958 64.6667 6.33333 62.0504 6.33333 58.8333V55.9167C6.33333 52.6996 8.94958 50.0833 12.1667 50.0833H58.8333C62.0504 50.0833 64.6667 52.6996 64.6667 55.9167V58.8333ZM44.25 15.0833C49.5496 15.0833 54.5342 17.1483 58.285 20.8962C59.4254 22.0367 59.4254 23.8829 58.285 25.0204C57.7162 25.5892 56.9696 25.875 56.2229 25.875C55.4762 25.875 54.7296 25.5892 54.1608 25.0204C51.5154 22.3721 47.995 20.9167 44.2529 20.9167C40.5108 20.9167 36.9904 22.375 34.345 25.0204C33.2075 26.1608 31.3612 26.1608 30.2208 25.0204C29.0804 23.8829 29.0804 22.0367 30.2208 20.8962C33.9687 17.1483 38.9533 15.0833 44.2529 15.0833H44.25ZM18 57.375C18 59.79 16.04 61.75 13.625 61.75C11.21 61.75 9.25 59.79 9.25 57.375C9.25 54.96 11.21 53 13.625 53C16.04 53 18 54.96 18 57.375ZM29.6667 57.375C29.6667 59.79 27.7067 61.75 25.2917 61.75C22.8767 61.75 20.9167 59.79 20.9167 57.375C20.9167 54.96 22.8767 53 25.2917 53C27.7067 53 29.6667 54.96 29.6667 57.375ZM18.6475 11.6358C25.2479 4.56 34.5783 0.5 44.25 0.5C53.9217 0.5 63.255 4.56 69.8525 11.6358C70.9521 12.8142 70.885 14.6604 69.7067 15.76C69.1467 16.285 68.4292 16.5446 67.7175 16.5446C66.9358 16.5446 66.16 16.2325 65.5854 15.6171C60.0846 9.71958 52.3087 6.33625 44.25 6.33625C36.1912 6.33625 28.4125 9.71958 22.9146 15.6171C21.8121 16.7954 19.9687 16.8567 18.7904 15.76C17.6121 14.6604 17.5479 12.8142 18.6475 11.6358Z" fill="#6842FF"/>
</svg>
