<svg width="71" height="70" viewBox="0 0 71 70" fill="none" xmlns="http://www.w3.org/2000/svg">
<g clip-path="url(#clip0_118_515)">
<path d="M20.9167 46.6667C20.9167 46.6667 23.8333 29.1667 35.5 29.1667C40.3329 29.1667 44.25 33.0838 44.25 37.9167C44.25 42.7496 40.3329 46.6667 35.5 46.6667H20.9167ZM43.1388 25.55L59.8746 6.74042C60.8896 5.60583 62.6338 5.50958 63.7654 6.52458C63.8033 6.55958 63.8383 6.59167 63.8763 6.62958C64.9525 7.70292 64.9525 9.44417 63.8763 10.5204C62.8 11.5967 46.2538 28.1488 46.2538 28.1488C47.61 29.6392 48.6367 31.4096 49.2842 33.3638L67.9888 14.6592C71.3371 11.305 71.3371 5.87125 67.9888 2.51708C66.2971 0.8225 63.9696 0 61.75 0C59.4575 0 57.5092 0.851667 55.8496 2.51125C55.4908 2.84667 37.5008 23.1263 37.1479 23.4996C39.3267 23.7504 41.3567 24.4475 43.1388 25.55ZM25.2917 14.5833C22.8767 14.5833 20.9167 16.5433 20.9167 18.9583C20.9167 21.3733 22.8767 23.3333 25.2917 23.3333C27.7067 23.3333 29.6667 21.3733 29.6667 18.9583C29.6667 16.5433 27.7067 14.5833 25.2917 14.5833ZM64.6667 32.0833V64.1667H6.33333V32.0833H20.485C22.0192 29.8054 23.9296 27.7958 26.2017 26.25H6.33333V14.5833C6.33333 12.9763 7.64292 11.6667 9.25 11.6667H39.8692L45.0608 5.83333H9.25C4.42583 5.83333 0.5 9.75917 0.5 14.5833V70H70.5V20.3992L58.8158 32.0833H64.6667ZM9.25 18.9583C9.25 21.3733 11.21 23.3333 13.625 23.3333C16.04 23.3333 18 21.3733 18 18.9583C18 16.5433 16.04 14.5833 13.625 14.5833C11.21 14.5833 9.25 16.5433 9.25 18.9583ZM15.0833 58.3333H55.9167V52.5H15.0833V58.3333Z" fill="#6842FF"/>
</g>
<defs>
<clipPath id="clip0_118_515">
<rect width="70" height="70" fill="white" transform="translate(0.5)"/>
</clipPath>
</defs>
</svg>
