<svg width="52" height="52" viewBox="0 0 52 52" fill="none" xmlns="http://www.w3.org/2000/svg">
<g clip-path="url(#clip0_129_131)">
<path d="M40.6857 28.1667L48.685 20.1673L31.8327 3.315L23.8333 11.3143V0H0V40.0833C0 46.6548 5.34517 52 11.9167 52H52V28.1667H40.6857ZM31.8348 9.44233L42.5598 20.1673L23.8355 38.8917V17.4438L31.8348 9.4445V9.44233ZM19.5022 26H4.33333V17.3333H19.5V26H19.5022ZM19.5022 4.33333V13H4.33333V4.33333H19.5H19.5022ZM4.33333 40.0833V30.3333H19.5V40.0833C19.5 44.265 16.0983 47.6667 11.9167 47.6667C7.735 47.6667 4.33333 44.265 4.33333 40.0833ZM47.6667 47.6667H21.1857L36.3523 32.5H47.6667V47.6667ZM15.1667 40.0833C15.1667 41.8773 13.7107 43.3333 11.9167 43.3333C10.1227 43.3333 8.66667 41.8773 8.66667 40.0833C8.66667 38.2893 10.1227 36.8333 11.9167 36.8333C13.7107 36.8333 15.1667 38.2893 15.1667 40.0833Z" fill="#6842FF"/>
</g>
<defs>
<clipPath id="clip0_129_131">
<rect width="52" height="52" fill="white"/>
</clipPath>
</defs>
</svg>
