<svg width="71" height="70" viewBox="0 0 71 70" fill="none" xmlns="http://www.w3.org/2000/svg">
<g clip-path="url(#clip0_118_509)">
<path d="M55.9167 2.91663H15.0833C11.217 2.92126 7.51038 4.4592 4.77647 7.1931C2.04257 9.927 0.504631 13.6336 0.5 17.5L0.5 52.5C0.504631 56.3663 2.04257 60.0729 4.77647 62.8068C7.51038 65.5407 11.217 67.0787 15.0833 67.0833H55.9167C59.783 67.0787 63.4896 65.5407 66.2235 62.8068C68.9574 60.0729 70.4954 56.3663 70.5 52.5V17.5C70.4954 13.6336 68.9574 9.927 66.2235 7.1931C63.4896 4.4592 59.783 2.92126 55.9167 2.91663ZM15.0833 8.74996H55.9167C58.2373 8.74996 60.4629 9.67183 62.1039 11.3128C63.7448 12.9537 64.6667 15.1793 64.6667 17.5V20.4166H6.33333V17.5C6.33333 15.1793 7.25521 12.9537 8.89615 11.3128C10.5371 9.67183 12.7627 8.74996 15.0833 8.74996ZM55.9167 61.25H15.0833C12.7627 61.25 10.5371 60.3281 8.89615 58.6871C7.25521 57.0462 6.33333 54.8206 6.33333 52.5V26.25H64.6667V52.5C64.6667 54.8206 63.7448 57.0462 62.1039 58.6871C60.4629 60.3281 58.2373 61.25 55.9167 61.25ZM55.9167 37.9166C55.9167 38.6902 55.6094 39.432 55.0624 39.979C54.5154 40.526 53.7735 40.8333 53 40.8333H18C17.2265 40.8333 16.4846 40.526 15.9376 39.979C15.3906 39.432 15.0833 38.6902 15.0833 37.9166C15.0833 37.1431 15.3906 36.4012 15.9376 35.8542C16.4846 35.3073 17.2265 35 18 35H53C53.7735 35 54.5154 35.3073 55.0624 35.8542C55.6094 36.4012 55.9167 37.1431 55.9167 37.9166ZM44.25 49.5833C44.25 50.3568 43.9427 51.0987 43.3957 51.6457C42.8487 52.1927 42.1069 52.5 41.3333 52.5H18C17.2265 52.5 16.4846 52.1927 15.9376 51.6457C15.3906 51.0987 15.0833 50.3568 15.0833 49.5833C15.0833 48.8097 15.3906 48.0679 15.9376 47.5209C16.4846 46.9739 17.2265 46.6666 18 46.6666H41.3333C42.1069 46.6666 42.8487 46.9739 43.3957 47.5209C43.9427 48.0679 44.25 48.8097 44.25 49.5833ZM9.25 14.5833C9.25 14.0064 9.42106 13.4425 9.74155 12.9629C10.062 12.4832 10.5176 12.1094 11.0505 11.8886C11.5835 11.6679 12.1699 11.6101 12.7357 11.7227C13.3015 11.8352 13.8212 12.113 14.2291 12.5209C14.637 12.9288 14.9148 13.4485 15.0273 14.0143C15.1398 14.5801 15.0821 15.1665 14.8613 15.6995C14.6406 16.2324 14.2667 16.6879 13.7871 17.0084C13.3074 17.3289 12.7435 17.5 12.1667 17.5C11.3931 17.5 10.6513 17.1927 10.1043 16.6457C9.55729 16.0987 9.25 15.3568 9.25 14.5833ZM18 14.5833C18 14.0064 18.1711 13.4425 18.4915 12.9629C18.812 12.4832 19.2676 12.1094 19.8005 11.8886C20.3335 11.6679 20.9199 11.6101 21.4857 11.7227C22.0515 11.8352 22.5712 12.113 22.9791 12.5209C23.387 12.9288 23.6648 13.4485 23.7773 14.0143C23.8898 14.5801 23.8321 15.1665 23.6113 15.6995C23.3906 16.2324 23.0167 16.6879 22.5371 17.0084C22.0574 17.3289 21.4935 17.5 20.9167 17.5C20.1431 17.5 19.4013 17.1927 18.8543 16.6457C18.3073 16.0987 18 15.3568 18 14.5833ZM26.75 14.5833C26.75 14.0064 26.9211 13.4425 27.2415 12.9629C27.562 12.4832 28.0176 12.1094 28.5505 11.8886C29.0835 11.6679 29.6699 11.6101 30.2357 11.7227C30.8015 11.8352 31.3212 12.113 31.7291 12.5209C32.137 12.9288 32.4148 13.4485 32.5273 14.0143C32.6398 14.5801 32.5821 15.1665 32.3613 15.6995C32.1406 16.2324 31.7667 16.6879 31.2871 17.0084C30.8074 17.3289 30.2435 17.5 29.6667 17.5C28.8931 17.5 28.1513 17.1927 27.6043 16.6457C27.0573 16.0987 26.75 15.3568 26.75 14.5833Z" fill="#6842FF"/>
</g>
<defs>
<clipPath id="clip0_118_509">
<rect width="70" height="70" fill="white" transform="translate(0.5)"/>
</clipPath>
</defs>
</svg>
