<svg width="53" height="53" viewBox="0 0 53 53" fill="none" xmlns="http://www.w3.org/2000/svg">
<g clip-path="url(#clip0_118_706)">
<path d="M35.1667 41.6667C35.1667 47.6402 30.3068 52.5 24.3333 52.5H11.3333C5.35983 52.5 0.5 47.6402 0.5 41.6667V11.3333C0.5 5.35983 5.35983 0.5 11.3333 0.5H24.3333C27.4382 0.5 30.3978 1.83683 32.4583 4.166C33.2513 5.063 33.1668 6.43233 32.2698 7.22317C31.375 8.01617 30.0057 7.93383 29.2127 7.03467C27.9755 5.635 26.1967 4.83117 24.3355 4.83117H11.3333C7.74967 4.83117 4.83333 7.7475 4.83333 11.3312V35.1645H24.3333C25.5293 35.1645 26.5 36.133 26.5 37.3312C26.5 38.5293 25.5293 39.4978 24.3333 39.4978H4.83333V41.6645C4.83333 45.2482 7.74967 48.1645 11.3333 48.1645H24.3333C27.917 48.1645 30.8333 45.2482 30.8333 41.6645C30.8333 40.4663 31.8018 39.4978 33 39.4978C34.1982 39.4978 35.1667 40.4685 35.1667 41.6667ZM15.6667 41.6667C14.4707 41.6667 13.5 42.6352 13.5 43.8333C13.5 45.0315 14.4707 46 15.6667 46H20C21.196 46 22.1667 45.0315 22.1667 43.8333C22.1667 42.6352 21.196 41.6667 20 41.6667H15.6667ZM52.5 16.7522V25.4167C52.5 28.4088 50.0755 30.8333 47.0833 30.8333H40.5833L34.4603 34.7918C32.8938 35.795 30.8377 34.6683 30.8377 32.8093L30.8333 16.7522C30.8333 13.7708 33.2708 11.3333 36.25 11.3333H47.0833C50.0733 11.3355 52.5 13.76 52.5 16.7522ZM48.1667 19.2438C48.1667 17.27 46.7107 15.6688 44.9167 15.6688C43.1227 15.6688 41.6667 17.27 41.6667 19.2438C41.6667 17.27 40.2107 15.6688 38.4167 15.6688C36.6227 15.6688 35.1667 17.27 35.1667 19.2438C35.1667 21.898 38.4318 24.9812 40.3342 26.5498C41.112 27.1912 42.2213 27.1912 42.9992 26.5498C44.9015 24.979 48.1667 21.8958 48.1667 19.2438Z" fill="#6842FF"/>
</g>
<defs>
<clipPath id="clip0_118_706">
<rect width="52" height="52" fill="white" transform="translate(0.5 0.5)"/>
</clipPath>
</defs>
</svg>
