<svg width="53" height="52" viewBox="0 0 53 52" fill="none" xmlns="http://www.w3.org/2000/svg">
<g clip-path="url(#clip0_118_711)">
<path d="M31.0088 12.103L2.44992 40.6662C1.27649 41.9244 0.637374 43.589 0.667263 45.3093C0.697152 47.0295 1.39371 48.6709 2.61014 49.8876C3.82657 51.1044 5.46785 51.8013 7.18807 51.8316C8.90829 51.8619 10.5731 51.2231 11.8316 50.05L40.3969 21.4912L31.0088 12.103ZM34.2696 21.4912L28.6666 27.0942L25.4166 23.8333L31.0196 18.2303L34.2696 21.4912ZM8.76792 46.9907C8.32992 47.4082 7.74803 47.6411 7.14292 47.6411C6.53781 47.6411 5.95592 47.4082 5.51792 46.9907C5.08765 46.5593 4.84602 45.9749 4.84602 45.3657C4.84602 44.7564 5.08765 44.172 5.51792 43.7407L22.3508 26.9057L25.6116 30.1665L8.76792 46.9907ZM46.7214 31.694L52.4999 34.5843L46.7214 37.4833L43.8333 43.251L40.9451 37.4833L35.1666 34.5843L40.9451 31.694L43.8333 25.9177L46.7214 31.694ZM14.9451 11.5548L9.16658 8.66667L14.9451 5.7785L17.8333 0L20.7214 5.7785L26.4999 8.66667L20.7214 11.5548L17.8333 17.3333L14.9451 11.5548ZM42.3881 10.1118L37.3333 7.58333L42.3881 5.05483L44.9166 0L47.4451 5.05483L52.4999 7.58333L47.4451 10.1118L44.9166 15.1667L42.3881 10.1118Z" fill="#6842FF"/>
</g>
<defs>
<clipPath id="clip0_118_711">
<rect width="52" height="52" fill="white" transform="translate(0.5)"/>
</clipPath>
</defs>
</svg>
