<svg width="646" height="574" viewBox="0 0 646 574" fill="none" xmlns="http://www.w3.org/2000/svg">
<g clip-path="url(#clip0_118_621)">
<mask id="mask0_118_621" style="mask-type:luminance" maskUnits="userSpaceOnUse" x="73" y="202" width="573" height="372">
<path d="M117.738 215.806C135.158 200.423 157.12 196.131 182.199 217.09C218.599 247.508 240.786 247.459 264.982 230.727C289.175 213.991 318.746 187.048 351.18 214.592C383.615 242.133 374.409 316.096 413.73 306.297C453.042 296.494 569.637 185.474 635.511 319.897C701.377 454.325 441.582 624.089 286.499 560.059C211.607 529.134 133.185 480.034 94.3587 406.161C77.1142 373.347 69.8725 336.282 76.1462 299.548C80.6472 273.197 95.4942 235.453 117.742 215.806H117.738Z" fill="white"/>
</mask>
<g mask="url(#mask0_118_621)">
<path d="M73.916 202.762H646V573.999H73.916V202.762Z" fill="#754DD4" fill-opacity="0.14902"/>
</g>
<mask id="mask1_118_621" style="mask-type:luminance" maskUnits="userSpaceOnUse" x="73" y="202" width="573" height="372">
<path d="M117.738 215.806C135.158 200.423 157.12 196.131 182.199 217.09C218.599 247.508 240.786 247.459 264.982 230.727C289.175 213.991 318.746 187.048 351.18 214.592C383.615 242.133 374.409 316.096 413.73 306.297C453.042 296.494 569.637 185.474 635.511 319.897C701.377 454.325 441.582 624.089 286.499 560.059C211.607 529.134 133.185 480.034 94.3587 406.161C77.1142 373.347 69.8725 336.282 76.1462 299.548C80.6472 273.197 95.4942 235.453 117.742 215.806H117.738Z" fill="white"/>
</mask>
<g mask="url(#mask1_118_621)">
<path d="M362.278 505.297L367.318 602.132C367.318 602.132 154.171 399.089 127.614 339.683C101.061 280.277 151.047 133.32 151.047 133.32L261.952 194.287L362.282 505.301L362.278 505.297Z" fill="#FCC6AB"/>
<path d="M19.4827 107.742H21.9701V39.4976C21.9701 17.6885 39.6435 0 61.434 0H205.893C227.683 0 245.357 17.6885 245.357 39.4976V413.887C245.357 435.696 227.683 453.384 205.893 453.384H61.434C39.6435 453.384 21.9701 435.696 21.9701 413.887V156.318H19.4827V107.742Z" fill="#3F3D56"/>
<path d="M59.8451 10.277H78.703C78.0209 11.9572 77.6655 13.7559 77.6655 15.5709C77.6655 23.3094 83.9351 29.5843 91.667 29.5843H174.426C182.158 29.5843 188.427 23.3094 188.427 15.5709C188.427 13.7559 188.072 11.9572 187.39 10.277H205.002C221.275 10.277 234.471 23.4851 234.471 39.7715V413.609C234.471 429.895 221.275 443.103 205.002 443.103H59.8492C43.5767 443.103 30.3799 429.895 30.3799 413.605V39.7674C30.3799 23.4811 43.5767 10.2729 59.8532 10.2729L59.8451 10.277Z" fill="white"/>
<path d="M62.4182 211.824H202.425C205.75 211.824 208.441 214.522 208.441 217.846V220.826C208.441 224.149 205.746 226.847 202.425 226.847H62.4182C59.0976 226.847 56.4019 224.149 56.4019 220.826V217.846C56.4019 214.522 59.0976 211.824 62.4182 211.824Z" fill="#E5E5E5"/>
<path d="M62.4182 244.095H202.425C205.75 244.095 208.441 246.793 208.441 250.116V253.096C208.441 256.42 205.746 259.118 202.425 259.118H62.4182C59.0976 259.118 56.4019 256.42 56.4019 253.096V250.116C56.4019 246.793 59.0976 244.095 62.4182 244.095Z" fill="#E5E5E5"/>
<path d="M509.42 555.73L499.76 544.7L334.581 356.096L328.332 227.898L262.728 118.46L243.984 71.5591C243.984 71.5591 200.248 76.2479 236.175 165.361L251.013 213.042C237.665 241.866 230.71 273.299 230.71 305.078V414.344C230.71 440.074 353.21 580.216 367.469 601.621L509.42 555.726V555.73Z" fill="#FFD2BB"/>
<path d="M132.311 389.048C156.374 389.048 175.88 369.525 175.88 345.442C175.88 321.36 156.374 301.836 132.311 301.836C108.249 301.836 88.7427 321.36 88.7427 345.442C88.7427 369.525 108.249 389.048 132.311 389.048Z" fill="#6842FF"/>
<path d="M127.647 363.9H127.643C126.577 363.9 125.552 363.475 124.796 362.718L110.982 348.141C110.227 347.384 109.802 346.358 109.802 345.287C109.802 343.059 111.607 341.253 113.833 341.253C114.903 341.253 115.929 341.678 116.684 342.434L127.647 354.158L147.906 327.104C148.661 326.348 149.687 325.923 150.757 325.923C152.983 325.923 154.788 327.73 154.788 329.958C154.788 331.029 154.363 332.055 153.608 332.811L130.494 362.714C129.742 363.471 128.717 363.896 127.647 363.896H127.643L127.647 363.9Z" fill="#F2F2F2"/>
<path d="M362.278 505.297L367.318 602.132C367.318 602.132 154.171 399.089 127.614 339.683C101.061 280.277 151.047 133.32 151.047 133.32L261.952 194.287L362.282 505.301L362.278 505.297Z" fill="#FCC6AB"/>
<path d="M19.4827 107.742H21.9701V39.4976C21.9701 17.6885 39.6435 0 61.434 0H205.893C227.683 0 245.357 17.6885 245.357 39.4976V413.887C245.357 435.696 227.683 453.384 205.893 453.384H61.434C39.6435 453.384 21.9701 435.696 21.9701 413.887V156.318H19.4827V107.742Z" fill="#3F3D56"/>
<path d="M59.8451 10.277H78.703C78.0209 11.9572 77.6655 13.7559 77.6655 15.5709C77.6655 23.3094 83.9351 29.5843 91.667 29.5843H174.426C182.158 29.5843 188.427 23.3094 188.427 15.5709C188.427 13.7559 188.072 11.9572 187.39 10.277H205.002C221.275 10.277 234.471 23.4851 234.471 39.7715V413.609C234.471 429.895 221.275 443.103 205.002 443.103H59.8492C43.5767 443.103 30.3799 429.895 30.3799 413.605V39.7674C30.3799 23.4811 43.5767 10.2729 59.8532 10.2729L59.8451 10.277Z" fill="white"/>
<path d="M62.4182 211.824H202.425C205.75 211.824 208.441 214.522 208.441 217.846V220.826C208.441 224.149 205.746 226.847 202.425 226.847H62.4182C59.0976 226.847 56.4019 224.149 56.4019 220.826V217.846C56.4019 214.522 59.0976 211.824 62.4182 211.824Z" fill="#E5E5E5"/>
<path d="M62.4182 244.095H202.425C205.75 244.095 208.441 246.793 208.441 250.116V253.096C208.441 256.42 205.746 259.118 202.425 259.118H62.4182C59.0976 259.118 56.4019 256.42 56.4019 253.096V250.116C56.4019 246.793 59.0976 244.095 62.4182 244.095Z" fill="#E5E5E5"/>
<path d="M509.42 555.73L499.76 544.7L334.581 356.096L328.332 227.898L262.728 118.46L243.984 71.5591C243.984 71.5591 200.248 76.2479 236.175 165.361L251.013 213.042C237.665 241.866 230.71 273.299 230.71 305.078V414.344C230.71 440.074 353.21 580.216 367.469 601.621L509.42 555.726V555.73Z" fill="#FFD2BB"/>
<path d="M132.311 389.048C156.374 389.048 175.88 369.525 175.88 345.442C175.88 321.36 156.374 301.836 132.311 301.836C108.249 301.836 88.7427 321.36 88.7427 345.442C88.7427 369.525 108.249 389.048 132.311 389.048Z" fill="#6842FF"/>
<path d="M127.647 363.9H127.643C126.577 363.9 125.552 363.475 124.796 362.718L110.982 348.141C110.227 347.384 109.802 346.358 109.802 345.287C109.802 343.059 111.607 341.253 113.833 341.253C114.903 341.253 115.929 341.678 116.684 342.434L127.647 354.158L147.906 327.104C148.661 326.348 149.687 325.923 150.757 325.923C152.983 325.923 154.788 327.73 154.788 329.958C154.788 331.029 154.363 332.055 153.608 332.811L130.494 362.714C129.742 363.471 128.717 363.896 127.647 363.896H127.643L127.647 363.9Z" fill="#F2F2F2"/>
</g>
<path d="M362.278 505.297L339.225 572.899C339.225 572.899 154.167 399.089 127.614 339.679C101.061 280.273 151.047 133.316 151.047 133.316L261.952 194.283L362.282 505.297H362.278Z" fill="#FCC6AB"/>
<path d="M35.4528 92.6699L2.65066 95.7972C2.65066 95.7972 -14.5326 133.316 38.5774 136.443L35.4528 92.6699Z" fill="#FCC6AB"/>
<path d="M35.4528 150.514L2.65066 153.641C2.65066 153.641 -14.5326 191.16 38.5774 194.288L35.4528 150.514Z" fill="#FCC6AB"/>
<path d="M35.4528 213.047L2.65066 216.175C2.65066 216.175 -14.5326 253.694 38.5774 256.821L35.4528 213.047Z" fill="#FCC6AB"/>
<path d="M44.8266 275.58L12.0244 278.707C12.0244 278.707 -5.15883 316.226 47.9512 319.354L44.8266 275.58Z" fill="#FCC6AB"/>
<path d="M19.4827 107.742H21.9701V39.4981C21.9701 17.689 39.6435 0.000488281 61.434 0.000488281H205.893C227.683 0.000488281 245.357 17.689 245.357 39.4981V413.887C245.357 435.696 227.683 453.385 205.893 453.385H61.434C39.6435 453.385 21.9701 435.696 21.9701 413.887V156.319H19.4827V107.742Z" fill="#3F3D56"/>
<path d="M59.8451 10.2775H78.703C78.0209 11.9577 77.6655 13.7564 77.6655 15.5714C77.6655 23.3099 83.9351 29.5848 91.667 29.5848H174.426C182.158 29.5848 188.427 23.3099 188.427 15.5714C188.427 13.7564 188.072 11.9577 187.39 10.2775H205.002C221.275 10.2775 234.471 23.4856 234.471 39.772V413.609C234.471 429.896 221.275 443.104 205.002 443.104H59.8492C43.5767 443.104 30.3799 429.896 30.3799 413.605V39.7679C30.3799 23.4815 43.5767 10.2734 59.8532 10.2734L59.8451 10.2775Z" fill="white"/>
<path d="M107.339 115.006H157.504C160.829 115.006 163.521 117.704 163.521 121.028V124.008C163.521 127.331 160.825 130.029 157.504 130.029H107.339C104.018 130.029 101.323 127.331 101.323 124.008V121.028C101.323 117.704 104.018 115.006 107.339 115.006Z" fill="#6842FF"/>
<path d="M104.378 179.555H160.466C163.786 179.555 166.482 182.253 166.482 185.576V188.556C166.482 191.88 163.786 194.578 160.466 194.578H104.378C101.057 194.578 98.3616 191.88 98.3616 188.556V185.576C98.3616 182.253 101.057 179.555 104.378 179.555Z" fill="#E5E5E5"/>
<path d="M62.4185 211.825H202.425C205.75 211.825 208.441 214.523 208.441 217.846V220.826C208.441 224.15 205.746 226.848 202.425 226.848H62.4185C59.0978 226.848 56.4021 224.15 56.4021 220.826V217.846C56.4021 214.523 59.0978 211.825 62.4185 211.825Z" fill="#E5E5E5"/>
<path d="M62.4185 244.095H202.425C205.75 244.095 208.441 246.793 208.441 250.117V253.097C208.441 256.42 205.746 259.118 202.425 259.118H62.4185C59.0978 259.118 56.4021 256.42 56.4021 253.097V250.117C56.4021 246.793 59.0978 244.095 62.4185 244.095Z" fill="#E5E5E5"/>
<path d="M496.722 541.234L334.581 356.096L328.332 227.898L262.728 118.46L243.984 71.5596C243.984 71.5596 200.248 76.2484 236.175 165.361L251.014 213.043C237.666 241.867 230.71 273.299 230.71 305.079V414.345C230.481 440.042 328.022 551.573 345.352 573.419L496.722 541.23V541.234Z" fill="#FFD2BB"/>
<path d="M249.131 127.736L262.172 121.322L261.727 120.419L249.678 126.346L231.486 78.6113L230.542 78.9711L249.131 127.736Z" fill="black" fill-opacity="0.2"/>
<path d="M21.7987 103.392L22.1459 102.444L2.82643 95.3228L2.47925 96.2671L21.7987 103.392Z" fill="black" fill-opacity="0.2"/>
<path d="M21.7987 161.895L22.1499 160.946L2.82643 153.825L2.47925 154.77L21.7987 161.895Z" fill="black" fill-opacity="0.2"/>
<path d="M21.7987 224.432L22.1499 223.488L2.82643 216.362L2.47925 217.311L21.7987 224.432Z" fill="black" fill-opacity="0.2"/>
<path d="M21.9211 284.349L22.3582 283.437L12.9517 278.92L12.5146 279.827L21.9211 284.349Z" fill="black" fill-opacity="0.2"/>
<path d="M132.311 389.049C156.374 389.049 175.88 369.526 175.88 345.443C175.88 321.36 156.374 301.837 132.311 301.837C108.249 301.837 88.7427 321.36 88.7427 345.443C88.7427 369.526 108.249 389.049 132.311 389.049Z" fill="#6842FF"/>
<path d="M127.647 363.9H127.643C126.577 363.9 125.552 363.475 124.796 362.719L110.982 348.141C110.227 347.385 109.802 346.359 109.802 345.288C109.802 343.06 111.607 341.253 113.833 341.253C114.903 341.253 115.929 341.678 116.684 342.434L127.647 354.159L147.906 327.105C148.661 326.348 149.687 325.923 150.757 325.923C152.983 325.923 154.788 327.73 154.788 329.958C154.788 331.029 154.363 332.055 153.608 332.811L130.494 362.715C129.742 363.471 128.717 363.896 127.647 363.896H127.643L127.647 363.9Z" fill="#F2F2F2"/>
</g>
<defs>
<clipPath id="clip0_118_621">
<rect width="646" height="574" fill="white"/>
</clipPath>
</defs>
</svg>
